<?xml version="1.0" encoding="UTF-8"?>
<svg id="Ebene_1" data-name="Ebene 1" xmlns="http://www.w3.org/2000/svg" viewBox="0 0 1920 1920">
  <g>
    <g>
      <path d="M443.88,999.23l-46.66,49.5h-116.35l-4.27,24.75h143.38l-43.81,46.37h-107.82l-12.23,69.7h-59.17l33.85-190.32h213.08Z"/>
      <path d="M462.65,1189.55l44.38-48.93h47.51c11.66,0,24.75,0,33.85.57-3.98-6.83-9.96-18.49-14.51-27.59l-25.32-50.35-111.52,126.31h-69.7l152.48-172.11c9.96-11.09,23.33-21.34,41.82-21.34s27.59,9.39,33.85,21.34l88.47,172.11h-221.33Z"/>
      <path d="M921.23,1140.62l-46.37,48.93h-95.59c-59.46,0-99-35.84-99-83.92,0-62.59,59.74-106.4,132.57-106.4h133.42l-46.66,49.5h-95.59c-34.99,0-64.58,22.47-64.58,52.63,0,23.61,19.63,39.26,48.36,39.26h133.42Z"/>
      <path d="M1165.02,1140.62l-46.66,48.93h-183.21l33.85-190.32h220.19l-46.94,49.5h-123.18l-3.98,22.76h150.49l-40.97,43.24h-117.21l-4.55,25.89h162.16Z"/>
    </g>
    <g>
      <path d="M238.38,971.68l44.37-251.55h267.34l-32.71,34.59h-199.66l-13.54,75.58h214.32l-28.58,30.08h-191.01l-13.54,77.08h227.86l-32.71,34.22h-242.15Z"/>
      <path d="M534.67,971.68l27.45-156.79h40.99l-21.43,122.58h115.43c63.92,0,118.07-45.87,118.07-105.28,0-45.5-34.22-77.46-85.73-77.46h-156.42l32.34-34.59h130.1c72.95,0,120.7,42.87,120.7,105.28,0,81.59-75.2,146.27-165.07,146.27h-156.42Z"/>
      <path d="M1171.62,720.13h40.98l-25.19,141.75c-13.54,75.95-68.43,113.93-165.82,113.93s-143.26-29.33-143.26-88.74c0-7.9.38-16.54,2.26-25.19l25.19-141.75h40.61l-25.19,141.75c-1.5,6.77-1.88,13.54-1.88,19.55,0,42.11,32.34,60.54,108.29,60.54,86.86,0,109.04-23.69,118.82-80.09l25.19-141.75Z"/>
    </g>
  </g>
  <g>
    <g>
      <g>
        <g>
          <polygon points="1285.33 888.51 1244.31 888.51 1272.78 720.1 1313.81 720.1 1285.33 888.51"/>
          <polygon points="1441.19 720.1 1434.26 761.12 1265.85 761.12 1272.78 720.1 1441.19 720.1"/>
        </g>
        <g>
          <polygon points="1261.71 1021.83 1220.69 1021.83 1192.21 1190.24 1233.24 1190.24 1261.71 1021.83"/>
          <polygon points="1360.62 1190.24 1367.56 1149.22 1199.15 1149.22 1192.21 1190.24 1360.62 1190.24"/>
        </g>
      </g>
      <g>
        <g>
          <polygon points="1671.48 888.51 1712.51 888.51 1740.98 720.1 1699.96 720.1 1671.48 888.51"/>
          <polygon points="1572.57 720.1 1565.63 761.12 1734.04 761.12 1740.98 720.1 1572.57 720.1"/>
        </g>
        <g>
          <polygon points="1650.02 1021.83 1691.04 1021.83 1662.57 1190.24 1621.55 1190.24 1650.02 1021.83"/>
          <polygon points="1494.16 1190.24 1501.1 1149.22 1669.51 1149.22 1662.57 1190.24 1494.16 1190.24"/>
        </g>
      </g>
    </g>
    <g>
      <path d="M1567.01,1096.09h-248.2l12.81-75.74c7.63-45.13,50.4-81.71,95.53-81.71h84.77c45.13,0,75.53,36.58,67.9,81.71l-12.81,75.74Z"/>
      <path d="M1547.79,866.13c-6.16,36.45-40.71,66-77.16,66s-61-29.55-54.84-66,40.71-66,77.16-66,61,29.55,54.84,66Z"/>
    </g>
  </g>
</svg>