<?xml version="1.0" encoding="UTF-8"?>
<svg id="Ebene_1" data-name="Ebene 1" xmlns="http://www.w3.org/2000/svg" viewBox="0 0 1920 1920">
  <defs>
    <style>
      .cls-1 {
        fill: #5d2f56;
      }

      .cls-2 {
        fill: #a3a0a0;
      }
    </style>
  </defs>
  <g>
    <g>
      <g>
        <polygon class="cls-2" points="353.71 737.03 216.5 737.03 311.74 173.74 448.95 173.74 353.71 737.03"/>
        <polygon class="cls-2" points="875.03 173.74 851.83 310.95 288.54 310.95 311.74 173.74 875.03 173.74"/>
      </g>
      <g>
        <polygon class="cls-2" points="274.7 1182.97 137.49 1182.97 42.25 1746.26 179.47 1746.26 274.7 1182.97"/>
        <polygon class="cls-2" points="605.54 1746.26 628.74 1609.05 65.45 1609.05 42.25 1746.26 605.54 1746.26"/>
      </g>
    </g>
    <g>
      <g>
        <polygon class="cls-2" points="1645.3 737.03 1782.51 737.03 1877.75 173.74 1740.53 173.74 1645.3 737.03"/>
        <polygon class="cls-2" points="1314.46 173.74 1291.26 310.95 1854.55 310.95 1877.75 173.74 1314.46 173.74"/>
      </g>
      <g>
        <polygon class="cls-2" points="1573.51 1182.97 1710.72 1182.97 1615.48 1746.26 1478.27 1746.26 1573.51 1182.97"/>
        <polygon class="cls-2" points="1052.19 1746.26 1075.39 1609.05 1638.68 1609.05 1615.48 1746.26 1052.19 1746.26"/>
      </g>
    </g>
  </g>
  <g>
    <path class="cls-1" d="M1295.86,1431.35H465.69l42.83-253.32c25.52-150.95,168.58-273.31,319.52-273.31h283.55c150.95,0,252.62,122.37,227.1,273.31l-42.83,253.32Z"/>
    <path class="cls-1" d="M1231.57,662.16c-20.61,121.91-136.15,220.75-258.07,220.75s-204.04-98.83-183.42-220.75c20.61-121.91,136.15-220.75,258.07-220.75s204.04,98.83,183.42,220.75Z"/>
  </g>
</svg>